PathFileType	4	(X/Y/Z)	C:/Users/Carlo/Dropbox/Carlos/SARAH/CongressoMarcha2025/WorkshopOpenSim/C3D/Caso03/pyCGM2 Static.c3d.trc
DataRate	CameraRate	NumFrames	NumMarkers	Units	OrigDataRate	OrigDataStartFrame	OrigNumFrames
100.000000	100.000000	3	128	mm	100.000000	263	422
Frame#	Time	LASI			RASI			LPSI			RPSI			LTHI			LTHAP			LTHAD			LKNE			LKNM			LTIB			LTIAP			LTIAD			LANK			LMED			LHEE			LTOE			RTHI			RTHAP			RTHAD			RKNE			RKNM			RTIB			RTIAP			RTIAD			RANK			RMED			RHEE			RTOE			PELO			PELA			PELL			PELP			LFEO			LFEA			LFEL			LFEP			LTIO			LTIA			LTIL			LTIP			LFOO			LFOA			LFOL			LFOP			LTOO			LTOA			LTOL			LTOP			RFEO			RFEA			RFEL			RFEP			RTIO			RTIA			RTIL			RTIP			RFOO			RFOA			RFOL			RFOP			RTOO			RTOA			RTOL			RTOP			PELVIS_CGM_2.3O			PELVIS_CGM_2.3A			PELVIS_CGM_2.3L			PELVIS_CGM_2.3P			LFEMUR_CGM_2.3O			LFEMUR_CGM_2.3A			LFEMUR_CGM_2.3L			LFEMUR_CGM_2.3P			LTIBIA_CGM_2.3O			LTIBIA_CGM_2.3A			LTIBIA_CGM_2.3L			LTIBIA_CGM_2.3P			LFOOT_CGM_2.3O			LFOOT_CGM_2.3A			LFOOT_CGM_2.3L			LFOOT_CGM_2.3P			LTOES_CGM_2.3O			LTOES_CGM_2.3A			LTOES_CGM_2.3L			LTOES_CGM_2.3P			RFEMUR_CGM_2.3O			RFEMUR_CGM_2.3A			RFEMUR_CGM_2.3L			RFEMUR_CGM_2.3P			RTIBIA_CGM_2.3O			RTIBIA_CGM_2.3A			RTIBIA_CGM_2.3L			RTIBIA_CGM_2.3P			RFOOT_CGM_2.3O			RFOOT_CGM_2.3A			RFOOT_CGM_2.3L			RFOOT_CGM_2.3P			RTOES_CGM_2.3O			RTOES_CGM_2.3A			RTOES_CGM_2.3L			RTOES_CGM_2.3P			LHipAngles			LKneeAngles			LAbsAnkleAngle			LAnkleAngles			RHipAngles			RKneeAngles			RAnkleAngles			RAbsAnkleAngle			LPelvisAngles			RPelvisAngles			LFootProgressAngles			RFootProgressAngles			LHipAngles_CGM_2.3			LKneeAngles_CGM_2.3			LAnkleAngles_CGM_2.3			RHipAngles_CGM_2.3			RKneeAngles_CGM_2.3			RAnkleAngles_CGM_2.3			LFootProgressAngles_CGM_2.3			RFootProgressAngles_CGM_2.3			LPelvisAngles_CGM_2.3			RPelvisAngles_CGM_2.3			LHJC_CGM_2.3			LKJC_CGM_2.3			RHJC_CGM_2.3			RKJC_CGM_2.3			LAJC_CGM_2.3			RAJC_CGM_2.3			
		X1	Y1	Z1	X2	Y2	Z2	X3	Y3	Z3	X4	Y4	Z4	X5	Y5	Z5	X6	Y6	Z6	X7	Y7	Z7	X8	Y8	Z8	X9	Y9	Z9	X10	Y10	Z10	X11	Y11	Z11	X12	Y12	Z12	X13	Y13	Z13	X14	Y14	Z14	X15	Y15	Z15	X16	Y16	Z16	X17	Y17	Z17	X18	Y18	Z18	X19	Y19	Z19	X20	Y20	Z20	X21	Y21	Z21	X22	Y22	Z22	X23	Y23	Z23	X24	Y24	Z24	X25	Y25	Z25	X26	Y26	Z26	X27	Y27	Z27	X28	Y28	Z28	X29	Y29	Z29	X30	Y30	Z30	X31	Y31	Z31	X32	Y32	Z32	X33	Y33	Z33	X34	Y34	Z34	X35	Y35	Z35	X36	Y36	Z36	X37	Y37	Z37	X38	Y38	Z38	X39	Y39	Z39	X40	Y40	Z40	X41	Y41	Z41	X42	Y42	Z42	X43	Y43	Z43	X44	Y44	Z44	X45	Y45	Z45	X46	Y46	Z46	X47	Y47	Z47	X48	Y48	Z48	X49	Y49	Z49	X50	Y50	Z50	X51	Y51	Z51	X52	Y52	Z52	X53	Y53	Z53	X54	Y54	Z54	X55	Y55	Z55	X56	Y56	Z56	X57	Y57	Z57	X58	Y58	Z58	X59	Y59	Z59	X60	Y60	Z60	X61	Y61	Z61	X62	Y62	Z62	X63	Y63	Z63	X64	Y64	Z64	X65	Y65	Z65	X66	Y66	Z66	X67	Y67	Z67	X68	Y68	Z68	X69	Y69	Z69	X70	Y70	Z70	X71	Y71	Z71	X72	Y72	Z72	X73	Y73	Z73	X74	Y74	Z74	X75	Y75	Z75	X76	Y76	Z76	X77	Y77	Z77	X78	Y78	Z78	X79	Y79	Z79	X80	Y80	Z80	X81	Y81	Z81	X82	Y82	Z82	X83	Y83	Z83	X84	Y84	Z84	X85	Y85	Z85	X86	Y86	Z86	X87	Y87	Z87	X88	Y88	Z88	X89	Y89	Z89	X90	Y90	Z90	X91	Y91	Z91	X92	Y92	Z92	X93	Y93	Z93	X94	Y94	Z94	X95	Y95	Z95	X96	Y96	Z96	X97	Y97	Z97	X98	Y98	Z98	X99	Y99	Z99	X100	Y100	Z100	X101	Y101	Z101	X102	Y102	Z102	X103	Y103	Z103	X104	Y104	Z104	X105	Y105	Z105	X106	Y106	Z106	X107	Y107	Z107	X108	Y108	Z108	X109	Y109	Z109	X110	Y110	Z110	X111	Y111	Z111	X112	Y112	Z112	X113	Y113	Z113	X114	Y114	Z114	X115	Y115	Z115	X116	Y116	Z116	X117	Y117	Z117	X118	Y118	Z118	X119	Y119	Z119	X120	Y120	Z120	X121	Y121	Z121	X122	Y122	Z122	X123	Y123	Z123	X124	Y124	Z124	X125	Y125	Z125	X126	Y126	Z126	X127	Y127	Z127	X128	Y128	Z128	

264	2.63	307.5072631835939	988.4761352539067	318.4131469726564	312.8992004394532	977.9523925781255	55.23549270629886	504.8544006347659	993.4783325195317	240.1646270751954	507.7280578613284	990.727416992188	137.8702087402344	341.3326110839845	651.5491333007815	373.8485107421876	255.9011688232423	786.4099731445317	318.923797607422	239.4355621337892	622.6026611328127	311.4192199707032	325.8822631835939	490.3808593750002	365.7502441406251	305.2889404296876	470.2997741699221	241.1895446777345	401.4386901855471	262.5238037109376	367.276336669922	289.5363159179689	376.4070739746095	297.3051147460939	347.908172607422	207.947479248047	292.0193176269532	431.1863708496096	87.94483184814456	348.5848388671876	392.4189453125002	93.18634796142581	264.7302856445314	466.2552490234377	57.72417831420901	299.4396972656251	277.5572814941407	56.05300521850589	339.3061523437501	355.0136718750001	687.6959228515627	2.958278894424439	259.4786987304689	778.3386840820317	70.86109161376956	246.5555267333986	612.2271118164065	71.65261077880862	317.4724121093751	475.663024902344	29.29269790649415	295.3655090332032	468.6861572265627	143.7578430175782	375.2127685546876	303.6821594238282	12.85705757141114	311.9746704101564	317.6712341308595	102.6784591674805	345.5568847656251	184.9467010498047	92.11133575439456	420.0447387695315	78.94617462158206	45.4289894104004	390.404724121094	93.20951843261722	131.2811737060547	463.2289123535159	50.600944519043	95.87011718750003	274.2403259277345	47.52313613891603	65.5393981933594	355.4515991210939	896.8217163085942	191.2059783935547	193.5209808349611	889.4318847656255	188.1838836669922	352.1333312988282	903.298217773438	353.169891357422	348.1899414062501	1058.651000976563	184.5860900878907	314.1063537597657	486.524353027344	309.0893859863282	-91.6642761230469	535.2050781250002	390.1081237792971	398.6969299316409	514.2270507812502	716.1035766601565	356.2760009765626	899.375854492188	272.2251586914064	413.1707763671877	90.38061523437503	309.6168212890626	67.8105163574219	4.221076965332033	463.897399902344	562.7309570312502	128.255355834961	665.561950683594	319.0553588867189	466.7337341308596	309.1157226562501	286.972625732422	78.38945007324222	349.7828063964845	281.6529846191407	263.2159423828126	332.3513183593751	325.0253295898439	96.54339599609381	530.656921386719	468.6775512695315	79.99869537353518	311.3937988281251	226.4043121337892	77.85304260253909	362.5791015625001	224.6311035156251	139.4618682861329	356.7686157226564	239.0885314941407	83.90434265136722	422.8704528808596	286.972625732422	78.38945007324222	349.7827758789064	303.2969970703126	474.0552673339846	84.99478149414065	-104.4805908203126	529.9910278320315	-17.16484069824219	198.7474365234376	462.1971130371096	495.8192443847659	354.627166748047	894.2678222656255	110.1867904663087	406.1819152832034	85.61724090576175	85.58267211914065	52.0120544433594	-8.352600097656254	-21.08059692382813	302.9367675781251	58.82544708251956	452.0063476562502	308.468963623047	454.5285644531252	85.02432250976565	279.1425781250001	72.36751556396487	52.232536315918	274.2122497558595	256.2787170410157	64.29041290283206	250.1972961425782	59.68233871459964	233.8758850097657	461.1615295410159	75.33185577392581	81.4446716308594	218.4695892333986	71.37942504882815	42.49514770507814	216.8261566162111	132.6831665039063	46.5144386291504	208.8211822509767	67.15103149414065	103.0429229736329	279.1425781250001	72.3675231933594	52.2325134277344	364.5639953613282	911.3369750976567	192.4929962158204	204.2291870117189	904.0335083007817	189.4450836181641	361.2262268066407	917.6857910156255	352.8626708984376	357.3883666992189	1071.575073242188	186.0000457763672	316.592987060547	481.2179870605471	309.2560119628907	-111.7627258300782	533.6855468750002	370.9394531250001	382.0838928222657	510.3588562011721	739.2653808593752	364.223114013672	913.009887695313	272.740203857422	413.0750122070315	90.36810302734378	309.6780090332032	54.56561279296878	2.042984008789063	470.1209411621096	568.749450683594	129.1956481933594	678.9071044921877	316.5932617187501	481.2176208496096	309.2555541992189	281.7929992675782	76.57189941406253	325.7340087890626	278.3462524414064	262.0623779296876	317.1065673828126	320.1293945312501	85.72576141357425	507.2265930175784	463.483581542969	78.15927886962893	287.2757263183595	221.2299957275392	76.04280090332034	338.5539855957032	220.0810852050782	137.8728942871094	335.6781616210939	234.0087738037111	79.0940856933594	399.051452636719	281.7934570312501	76.57192993164065	325.7345581054689	306.7409973144532	472.1700134277346	85.64189910888675	-123.7156982421876	534.2409667968752	5.988227844238283	224.1902008056642	456.7469177246096	519.736267089844	364.903533935547	909.6626586914067	112.2463836669922	406.1780090332034	85.51349639892581	85.513298034668	35.06954956054689	-9.88700103759766	-26.59498596191408	297.6333312988282	57.47180557250979	468.6878356933596	306.7417297363282	472.170104980469	85.64178466796878	270.3039855957032	70.55220031738284	76.04509735107425	266.390106201172	261.7984008789064	81.77324676513675	240.2870025634767	64.28005218505862	264.9442138671876	459.2666625976565	73.51704406738284	106.1706237792969	207.3170013427736	69.56390380859378	66.00350189208987	206.0123748779298	133.3125610351563	67.91287994384768	197.3113555908204	67.47319030761722	128.9698028564454	270.3045043945314	70.55218505859378	76.04533386230472	-2.916425943374635	-12.65907764434815	8.325529098510746	0.801436841487885	-11.12853240966797	20.45129394531251	0	0	13.21936416625977	0.007611303590238098	10.82672595977784	13.46339988708497	-5.534676551818849	-12.5160255432129	9.668362617492679	-1.987091302871705	-2.011480331420899	21.97932434082032	0.007358980830758814	6.636479377746586	13.83125305175782	0	0	13.73675537109376	2.340114831924439	1.068966150283814	2.569263696670533	-2.340114831924439	-1.068966150283814	2.569263696670533	-5.504796504974367	-11.92906665802002	-89.49258422851565	-3.797840833663942	-9.11644268035889	-89.06697845458987	-2.681179761886598	-9.597470283508304	8.787170410156254	1.596449971199037	-14.16749954223634	20.62929916381837	-2.716820001602174	10.90610027313233	13.30259895324708	-5.538209915161135	-8.911089897155765	10.27540016174317	-0.7468619942665102	-5.383100032806398	22.23579978942872	-2.07241988182068	6.80328989028931	13.44499969482423	2.721590042114259	-168.0489959716797	-90.500602722168	1.736670017242433	-170.9429931640626	-90.89890289306643	177.7330017089844	1.192299962043763	-177.3899993896485	-177.7330017089844	-1.192299962043763	-177.3899993896485	364.2239990234376	913.0100097656255	272.7399902343751	316.592987060547	481.2179870605471	309.2560119628907	364.9039916992189	909.6630249023442	112.2460021972657	306.7409973144532	472.1700134277346	85.64189910888675	413.0750122070315	90.36810302734378	309.6780090332032	406.1780090332034	85.51349639892581	85.513298034668	
265	2.64	307.5451049804689	988.4597167968755	318.3281860351564	313.0330810546876	977.9753417968755	55.38784027099612	504.9101257324221	993.4976196289067	240.1370391845704	507.7805175781252	990.7754516601567	137.8538360595704	341.4025268554689	651.5633544921877	373.8428344726564	255.9323577880861	786.4221191406255	318.9546508789064	239.475067138672	622.6068115234377	311.3833618164064	325.7201232910157	490.2851867675784	365.5523071289064	305.3934326171876	470.3399963378909	241.1814270019532	401.4592285156252	262.5820617675782	367.237762451172	289.5724487304689	376.463592529297	297.3116149902345	347.9236145019532	207.9802551269532	291.9877319335939	431.1992492675784	87.95561981201175	348.5792236328126	392.495056152344	93.22645568847659	264.6192626953126	466.2395935058596	57.71023559570315	299.4286499023439	277.562713623047	56.04184341430667	339.292938232422	355.0895996093751	687.7420654296877	2.931782484054566	259.5061645507814	778.3600463867192	70.84445953369143	246.6125946044923	612.2673339843752	71.64995574951175	317.5743408203126	475.7068176269534	29.26531982421876	295.4505004882814	468.6949768066409	143.7369232177735	375.2845458984376	303.6917114257814	12.83148574829102	311.5818786621095	317.826873779297	102.6831893920899	345.5762023925782	184.9480895996094	92.10991668701175	420.0518188476565	78.96469879150393	45.44113159179689	390.4149475097659	93.19023895263675	131.2957000732422	463.303649902344	50.63442993164065	95.83797454833987	274.2521972656251	47.53631591796876	65.58461761474612	355.5521850585939	896.833129882813	191.2471771240235	193.6241455078126	889.4129028320317	188.1634063720704	352.1718139648439	903.2911987304692	353.2105102539064	348.2622680664064	1058.661743164063	184.642318725586	313.7964172363282	486.4866943359377	308.9184570312501	-91.77062988281253	535.5686035156252	391.0146789550784	399.4607849121096	513.7764892578127	715.7971801757815	356.3457031250001	899.378540039063	272.2669982910157	413.2267761230471	90.40315246582034	309.5920715332032	67.71661376953128	3.930038452148439	463.4380493164065	562.3001098632815	128.4313354492188	665.758483886719	318.7633666992189	466.700622558594	308.952117919922	287.029754638672	78.41886138916018	349.7636108398439	281.6976318359376	263.2383728027345	332.2620544433595	325.0827636718751	96.64396667480474	530.6304321289065	468.7342529296877	80.02563476562503	311.3724365234376	226.4615936279298	77.88327789306643	362.5606384277345	224.6842346191407	139.4897766113282	356.726776123047	239.1459045410157	83.95832061767581	422.8495788574221	287.0297241210939	78.41885375976565	349.7636108398439	303.4373168945314	474.0856933593752	84.9767761230469	-104.4061889648438	530.0188598632815	-16.88768005371094	199.1732177734376	462.1291809082034	495.8627624511721	354.7587280273439	894.2877807617192	110.227409362793	406.1897277832034	85.61843109130862	85.59796142578128	52.00958251953128	-8.235427856445316	-21.11353302001954	302.8811340332032	58.87843322753909	452.0018310546877	308.6026916503907	454.5573730468752	85.00801849365237	279.1364746093751	72.35343170166018	52.30702590942386	274.1974182128907	256.2662963867189	64.33641052246097	250.2737731933595	59.69637680053714	233.9654693603517	461.1683349609377	75.33663177490237	81.43690490722659	218.4592132568361	71.35907745361331	42.59701538085939	216.8128662109376	132.6633605957032	46.60680389404298	208.8382873535157	67.14006042480472	103.1498184204102	279.1364746093751	72.35346221923831	52.30699157714847	364.6459960937501	911.3439941406255	192.5140075683595	204.3124389648439	904.0117187500005	189.4697875976563	361.3113098144532	917.680297851563	352.8842163085939	357.4411621093751	1071.581176757813	186.0331726074219	316.5539855957032	481.2219848632815	309.1470031738282	-111.7741394042969	533.7996215820315	370.9278869628907	382.1346435546876	510.2053527832034	739.1533203125002	364.3081665039064	913.011108398438	272.7604370117189	413.080993652344	90.38369750976565	309.6889953613282	54.65966796875003	2.08538055419922	470.3434143066409	568.9299316406252	129.3866882324219	678.8260498046877	316.5536193847657	481.2218017578127	309.1467590332032	281.7969970703126	76.57430267333987	325.717987060547	278.3280334472657	262.0622863769532	317.0449829101564	320.0894165039064	85.77697753906253	507.2174072265627	463.4964599609377	78.17619323730472	287.3021545410157	221.2310028076173	76.040397644043	338.5230102539064	220.074676513672	137.8696594238282	335.6320190429689	233.9951324462892	79.10795593261722	399.0227661132815	281.7974243164064	76.57436370849612	325.717742919922	306.6919860839845	472.2040100097659	85.61569976806643	-123.7002868652344	534.4200439453127	5.727416992187502	223.8974151611329	456.793884277344	519.6641235351565	364.9846191406251	909.6765136718755	112.2666778564454	406.1480102539065	85.55200195312503	85.55149841308597	35.18856811523439	-9.848129272460941	-27.0492401123047	297.1123657226564	57.44217300415042	468.5816040039065	306.6927795410157	472.2039184570315	85.61560058593753	270.2789916992189	70.546501159668	76.08029937744143	266.3060302734376	261.7929077148439	81.76036071777347	240.2543182373048	64.31243133544925	264.979461669922	459.239196777344	73.57698822021487	106.2146911621094	207.2920074462892	69.53630065917972	66.03579711914065	205.9676818847657	133.2850341796876	67.92914581298831	197.2837982177736	67.45828247070315	129.0021057128907	270.2786865234376	70.54646301269534	76.08058166503909	-2.896281957626344	-12.83172225952149	8.386498451232914	0.6792587637901308	-10.92554378509522	20.54368400573731	0	0	13.2663917541504	0.007955291308462623	10.74553394317627	13.50762748718262	-5.533534049987795	-12.45417022705079	9.679479598999027	-1.955040931701661	-2.053528547286988	21.96388626098634	0.007266636006534103	6.672890186309818	13.80903434753419	0	0	13.71364498138428	2.334795713424684	1.090792894363404	2.579266548156739	-2.334795713424684	-1.090792894363404	2.579266548156739	-5.527025222778322	-11.92973423004151	-89.49337005615237	-3.78856682777405	-9.09059047698975	-89.06114196777347	-2.668879985809327	-9.609290122985843	8.814259529113773	1.555600047111512	-14.19379997253419	20.64699935913087	-2.726880073547364	10.94769954681397	13.30369949340821	-5.539509773254396	-8.943169593811039	10.30280017852784	-0.7478160262107851	-5.426099777221681	22.25779914855958	-2.090480089187623	6.875539302825931	13.4315004348755	2.735839843750001	-168.061996459961	-90.5050964355469	1.722429990768434	-170.9400024414063	-90.91880035400393	177.7380065917969	1.1912100315094	-177.3800048828126	-177.7380065917969	-1.1912100315094	-177.3800048828126	364.3080139160157	913.0109863281255	272.7609863281251	316.5539855957032	481.2219848632815	309.1470031738282	364.9849853515626	909.6760253906255	112.2669982910157	306.6919860839845	472.2040100097659	85.61569976806643	413.080993652344	90.38369750976565	309.6889953613282	406.1480102539065	85.55200195312503	85.55149841308597	
266	2.65	307.5721740722657	988.464477539063	318.3977355957032	313.0778198242189	978.004760742188	55.34919738769534	504.953796386719	993.5258789062505	240.1126251220704	507.7965393066409	990.8312377929692	137.8276367187501	341.4845275878907	651.5969848632815	373.8379211425782	255.9926300048829	786.4057617187505	318.9599914550782	239.5397491455079	622.6287231445315	311.4006652832032	325.8353271484376	490.3174743652346	365.5632934570314	305.324188232422	470.3330383300784	241.2357635498048	401.5963439941409	262.5637817382814	367.292205810547	289.7296142578126	376.4270935058595	297.3136291503907	347.9659118652345	207.9613494873048	291.9873962402345	431.1985778808596	87.94573974609378	348.569305419922	392.526794433594	93.22402191162112	264.6165161132814	466.2196960449221	57.72163009643558	299.4265747070314	277.5577392578126	56.03127288818362	339.2841796875001	355.1597900390626	687.7551269531252	2.95125699043274	259.5786132812501	778.3595581054692	70.86277008056643	246.6607971191407	612.2789306640627	71.64968109130862	317.6490478515626	475.7283935546877	29.23696708679201	295.5484924316407	468.7135925292971	143.7389831542969	375.386688232422	303.7289428710939	12.81605625152589	312.0871887207032	317.7118530273439	102.6969528198243	345.7488098144532	184.9522857666016	92.01155853271487	420.0908203125002	78.94692230224612	45.43893814086915	390.4459228515627	93.20794677734378	131.3006744384766	463.2533874511721	50.62070465087893	95.87673187255862	274.2465209960939	47.49574661254884	65.58328247070315	355.6000061035157	896.8561401367192	191.2557983398438	193.6731567382814	889.4135131835942	188.162582397461	352.2100524902345	903.2963867187505	353.2196655273439	348.2877502441407	1058.684448242188	184.6678924560547	313.9168090820314	486.5158386230471	308.9285583496095	-91.64404296875003	535.519958496094	390.9876098632815	399.5393371582034	513.8267211914065	715.7917480468752	356.3888244628907	899.392944335938	272.2759399414064	413.2373962402346	90.39726257324222	309.5772399902345	67.65905761718753	4.000656127929689	463.3315429687502	562.237731933594	128.3401184082032	665.791198730469	318.8782348632814	466.7283935546877	308.9609680175782	287.0404052734376	78.39453887939456	349.7435302734376	281.6974487304689	263.2184143066407	332.2915344238282	325.0894165039064	96.57333374023443	530.6158447265627	468.7454223632815	80.0225524902344	311.3557128906251	226.4720764160157	77.85186004638675	362.5394592285157	224.6910705566407	139.4598388671876	356.722137451172	239.1551055908204	83.91144561767581	422.8302307128909	287.0404052734376	78.39454650878909	349.7434997558595	303.4988708496095	474.1035156250002	84.94496917724612	-104.3354187011719	530.0405273437502	-17.01605224609376	199.1339416503907	462.1189270019534	495.8198547363284	354.8112182617189	894.3190917968755	110.2356872558594	406.227233886719	85.6161804199219	85.59267425537112	52.02734375000003	-8.223381042480472	-21.11343383789063	302.9157714843751	58.90824127197268	452.011901855469	308.6629028320314	454.5747985839846	84.97756958007815	279.1838378906251	72.33113098144534	52.27220535278323	274.2188720703126	256.2448730468751	64.27761840820315	250.2780151367189	59.69295501708987	233.9250946044923	461.2081298828127	75.34067535400393	81.44651794433597	218.5090484619142	71.32796478271487	42.54743576049806	216.8540649414064	132.632553100586	46.5492401123047	208.8737792968751	67.11524200439456	103.0983886718751	279.1838378906251	72.3311462402344	52.27220535278323	364.6770019531251	911.370971679688	192.5000000000001	204.3436584472657	904.0282592773442	189.4688415527344	361.3557434082032	917.6893920898442	352.8712158203126	357.4608459472657	1071.6083984375	186.0373840332032	316.6889953613282	481.2319946289065	309.165985107422	-111.6532592773438	533.7168579101565	370.927459716797	382.2476806640626	510.2638244628909	739.1723632812502	364.3460693359376	913.0291137695317	272.7474670410157	413.0960083007815	90.36450195312503	309.7000122070314	54.6654968261719	2.177841186523438	470.3952636718752	568.9984130859377	129.3218841552735	678.819274902344	316.6891479492189	481.2323913574221	309.1659545898439	281.8089904785157	76.56169891357425	325.7090148925782	278.3529663085939	262.050750732422	317.0539550781251	320.0765991210939	85.7438659667969	507.2147216796877	463.5139160156252	78.15589141845706	287.3187255859376	221.2400054931642	76.03029632568362	338.5050048828126	220.0879974365236	137.8599090576172	335.6199951171876	233.9958648681642	79.09101867675784	399.0068359375002	281.8082580566407	76.56169128417972	325.7082519531251	306.9270019531251	472.2120056152346	85.60890197753909	-123.5550537109376	534.2078857421877	6.034301757812504	224.4519348144532	456.7239990234377	519.7153320312502	365.0086059570314	909.7128906250005	112.2528457641602	406.2279968261721	85.52010345458987	85.48239898681643	35.13262939453126	-9.739410400390629	-26.78893280029298	297.5150756835939	57.4778747558594	468.6091918945315	306.9268188476564	472.2114868164065	85.60864257812503	270.3510131835939	70.54319763183597	76.09059906005862	266.4227294921876	261.7905883789064	81.76935577392581	240.4354858398439	64.31917572021487	265.0074157714845	459.3294982910159	73.53338623046878	106.1144256591797	207.3580017089845	69.54630279541018	66.08280181884768	206.0485687255861	133.2953643798829	67.97572326660159	197.3861694335939	67.47163391113284	129.0550079345704	270.3507690429689	70.54302978515628	76.09072875976565	-2.903066396713258	-12.8294439315796	8.383760452270511	0.6904060244560244	-10.9148235321045	20.51855659484864	0	0	13.24488067626954	0.007997112348675731	10.73444080352784	13.4851884841919	-5.532210826873781	-12.46470260620118	9.686194419860843	-1.950138330459596	-2.037901401519776	21.96028327941895	0.007364346180111173	6.658852100372318	13.79639625549317	0	0	13.70150184631348	2.328803539276124	1.094109773635865	2.587167263031007	-2.328803539276124	-1.094109773635865	2.587167263031007	-5.511287689208986	-11.92869567871094	-89.48665618896487	-3.781174898147585	-9.104526519775394	-89.05278778076175	-2.678600072860719	-9.600839614868168	8.805509567260746	1.566449999809266	-14.20189952850343	20.6176986694336	-2.727220058441163	10.96349906921387	13.28989982604981	-5.533619880676271	-8.908160209655765	10.27849960327149	-0.7321149706840517	-5.414730072021486	22.2067985534668	-2.085020065307618	6.859350204467777	13.42019939422608	2.730079650878907	-168.0709991455079	-90.50270080566409	1.722000002861024	-170.9739990234376	-90.90670013427737	177.7440032958985	1.186450004577637	-177.3760070800782	-177.7440032958985	-1.186450004577637	-177.3760070800782	364.3460083007814	913.0300292968755	272.7470092773439	316.6889953613282	481.2319946289065	309.165985107422	365.009002685547	909.713012695313	112.2529983520508	306.9270019531251	472.2120056152346	85.60890197753909	413.0960083007815	90.36450195312503	309.7000122070314	406.2279968261721	85.52010345458987	85.48239898681643	
